HIERARCHY
ROOT Hips
{
	OFFSET 0.00 0.00 0.00
	CHANNELS 6 Xposition Yposition Zposition Xrotation Yrotation Zrotation
	JOINT Spine
	{
		OFFSET 0.00000 2.10617 3.15926
		CHANNELS 3 Xrotation Yrotation Zrotation
		JOINT Spine1
		{
			OFFSET 0.00000 0.73147 4.14835
			CHANNELS 3 Xrotation Yrotation Zrotation
			JOINT Spine2
			{
				OFFSET 0.00000 0.36713 4.19631
				CHANNELS 3 Xrotation Yrotation Zrotation
				JOINT Spine3
				{
					OFFSET 0.00000 0.00000 4.21234
					CHANNELS 3 Xrotation Yrotation Zrotation
					JOINT Neck
					{
						OFFSET 0.00000 -1.57962 11.05740
						CHANNELS 3 Xrotation Yrotation Zrotation
						JOINT Head
						{
							OFFSET 0.00000 -1.00576 5.70398
							CHANNELS 3 Xrotation Yrotation Zrotation
							End Site
							{
								OFFSET 0.00000 0.00001 6.81873
							}
						}
					}
					JOINT RightShoulder
					{
						OFFSET -1.28113 -2.13521 6.91810
						CHANNELS 3 Xrotation Yrotation Zrotation
						JOINT RightArm
						{
							OFFSET -6.36294 0.00000 0.00000
							CHANNELS 3 Xrotation Yrotation Zrotation
							JOINT RightForeArm
							{
								OFFSET -10.12221 0.00000 0.00000
								CHANNELS 3 Xrotation Yrotation Zrotation
								JOINT RightHand
								{
									OFFSET -10.76713 0.00000 0.00000
									CHANNELS 3 Xrotation Yrotation Zrotation
									JOINT RightHandEnd
									{
										OFFSET -2.78915 0.00000 0.00000
										CHANNELS 3 Xrotation Yrotation Zrotation
										End Site
										{
											OFFSET -2.78915 0.00000 0.00000
										}
									}
									JOINT RightHandThumb1
									{
										OFFSET -1.11566 -1.85944 -0.74377
										CHANNELS 3 Yrotation Xrotation Zrotation
										End Site
										{
											OFFSET -2.69412 -0.72189 0.00000
										}
									}
								}
							}
						}
					}
					JOINT LeftShoulder
					{
						OFFSET 1.28113 -2.13521 6.91810
						CHANNELS 3 Xrotation Yrotation Zrotation
						JOINT LeftArm
						{
							OFFSET 6.36294 0.00000 0.00000
							CHANNELS 3 Xrotation Yrotation Zrotation
							JOINT LeftForeArm
							{
								OFFSET 10.12221 0.00000 0.00000
								CHANNELS 3 Xrotation Yrotation Zrotation
								JOINT LeftHand
								{
									OFFSET 10.76713 0.00000 0.00000
									CHANNELS 3 Xrotation Yrotation Zrotation
									JOINT LeftHandEnd
									{
										OFFSET 2.78915 0.00000 0.00000
										CHANNELS 3 Xrotation Yrotation Zrotation
										End Site
										{
											OFFSET 2.78915 0.00000 0.00000
										}
									}
									JOINT LeftHandThumb1
									{
										OFFSET 1.11566 -1.85944 -0.74377
										CHANNELS 3 Yrotation Xrotation Zrotation
										End Site
										{
											OFFSET 2.69412 -0.72189 0.00000
										}
									}
								}
							}
						}
					}
				}
			}
		}
	}
	JOINT RightUpLeg
	{
		OFFSET -3.80068 0.00000 -1.11031
		CHANNELS 3 Xrotation Yrotation Zrotation
		JOINT RightLeg
		{
			OFFSET 0.00001 0.00000 -17.00167
			CHANNELS 3 Xrotation Yrotation Zrotation
			JOINT RightFoot
			{
				OFFSET 0.00001 0.00000 -17.96841
				CHANNELS 3 Xrotation Yrotation Zrotation
				JOINT RightToeBase
				{
					OFFSET 0.00000 -5.07501 -1.84715
					CHANNELS 3 Xrotation Yrotation Zrotation
					End Site
					{
						OFFSET 0.00000 -3.07471 -0.00000
					}
				}
			}
		}
	}
	JOINT LeftUpLeg
	{
		OFFSET 3.80068 0.00000 -1.11031
		CHANNELS 3 Xrotation Yrotation Zrotation
		JOINT LeftLeg
		{
			OFFSET 0.00001 0.00000 -17.00167
			CHANNELS 3 Xrotation Yrotation Zrotation
			JOINT LeftFoot
			{
				OFFSET 0.00001 0.00000 -17.96841
				CHANNELS 3 Xrotation Yrotation Zrotation
				JOINT LeftToeBase
				{
					OFFSET 0.00000 -5.07501 -1.84715
					CHANNELS 3 Xrotation Yrotation Zrotation
					End Site
					{
						OFFSET 0.00000 -3.07471 -0.00000
					}
				}
			}
		}
	}
}
MOTION
Frames: 10
Frame Time: 0.008342
 11.1704 28.4203 38.1900 -0.4326 0.8191 -1.9618 1.3473 0.8615 0.2764 0.5293 -0.0346 0.0350 0.2185 -1.7461 0.3682 0.0969 -0.8170 1.0511 -1.3586 -1.0383 1.1038 0.5805 0.6069 2.8528 -1.1338 4.0770 -2.4891 -24.3354 -6.2973 -19.9561 0.0000 0.0000 29.3629 5.4669 11.8937 -3.4009 0.0000 -0.0000 -0.0000 -0.0000 -0.0000 0.0000 -3.2501 -6.3696 1.0939 -21.8631 -0.1973 26.3602 -0.0000 -0.0000 -32.1030 -10.0906 -10.0584 5.7723 -0.0000 0.0000 0.0000 -0.0000 0.0000 0.0000 2.1062 3.3514 -28.9428 5.5887 0.0000 0.0000 -3.5933 -5.2229 1.7268 1.8698 0.0000 0.0000 1.6808 -3.7454 22.8954 4.2899 0.0000 0.0000 -7.8831 18.9465 4.2150 11.3905 0.0000 0.0000
 11.1697 28.4203 38.1899 -0.4347 0.8202 -1.9633 1.3431 0.8611 0.2768 0.5238 -0.0372 0.0349 0.2250 -1.7423 0.3714 0.1005 -0.8155 1.0497 -1.3207 -1.0507 1.0983 0.5754 0.6009 2.8530 -1.1447 4.0866 -2.4681 -24.2995 -6.3058 -19.9635 0.0000 0.0000 29.2854 5.5141 11.9618 -3.2213 -0.0000 0.0000 0.0000 -0.0000 -0.0000 0.0000 -3.2524 -6.3681 1.0929 -21.8349 -0.1619 26.3333 -0.0000 -0.0000 -32.0824 -10.0533 -10.1220 5.7349 0.0000 -0.0000 -0.0000 -0.0000 -0.0000 0.0000 2.1121 3.3479 -28.9448 5.5807 0.0000 0.0000 -3.5898 -5.2251 1.7319 1.8648 0.0000 0.0000 1.6844 -3.7463 22.8971 4.2867 0.0000 0.0000 -7.8861 18.9414 4.2209 11.4036 0.0000 0.0000
 11.1690 28.4208 38.1899 -0.4352 0.8207 -1.9656 1.3363 0.8600 0.2773 0.5173 -0.0382 0.0350 0.2328 -1.7381 0.3748 0.1051 -0.8147 1.0494 -1.2716 -1.0628 1.0917 0.5683 0.5893 2.8515 -1.1575 4.1025 -2.4373 -24.2618 -6.3156 -19.9810 0.0000 0.0000 29.1920 5.5392 12.0454 -3.0052 0.0000 -0.0000 0.0000 -0.0000 -0.0000 0.0000 -3.2577 -6.3615 1.0898 -21.7958 -0.1222 26.2981 -0.0000 -0.0000 -32.0550 -10.0022 -10.1954 5.6912 0.0000 -0.0000 -0.0000 0.0000 -0.0000 0.0000 2.1154 3.3452 -28.9480 5.5736 0.0000 0.0000 -3.5861 -5.2277 1.7399 1.8597 0.0000 0.0000 1.6847 -3.7467 22.8954 4.2853 0.0000 0.0000 -7.8918 18.9332 4.2317 11.4184 0.0000 0.0000
 11.1678 28.4215 38.1899 -0.4366 0.8225 -1.9689 1.3298 0.8591 0.2781 0.5099 -0.0419 0.0350 0.2414 -1.7322 0.3795 0.1105 -0.8133 1.0483 -1.2113 -1.0760 1.0843 0.5580 0.5732 2.8493 -1.1740 4.1221 -2.3927 -24.2205 -6.3227 -20.0109 0.0000 0.0000 29.0849 5.5308 12.1384 -2.7598 -0.0000 -0.0000 0.0000 0.0000 -0.0000 0.0000 -3.2655 -6.3531 1.0880 -21.7479 -0.0764 26.2541 -0.0000 -0.0000 -32.0208 -9.9372 -10.2769 5.6422 0.0000 -0.0000 0.0000 -0.0000 0.0000 0.0000 2.1198 3.3403 -28.9504 5.5646 0.0000 0.0000 -3.5809 -5.2304 1.7488 1.8545 0.0000 0.0000 1.6842 -3.7495 22.8916 4.2868 0.0000 0.0000 -7.9005 18.9234 4.2454 11.4336 0.0000 0.0000
 11.1663 28.4225 38.1899 -0.4382 0.8245 -1.9735 1.3230 0.8579 0.2789 0.5022 -0.0455 0.0350 0.2506 -1.7255 0.3848 0.1164 -0.8128 1.0475 -1.1414 -1.0876 1.0764 0.5447 0.5517 2.8453 -1.1922 4.1472 -2.3363 -24.1808 -6.3275 -20.0525 0.0000 0.0000 28.9682 5.4820 12.2335 -2.4963 -0.0000 -0.0000 -0.0000 0.0000 -0.0000 0.0000 -3.2757 -6.3415 1.0864 -21.6921 -0.0270 26.2027 -0.0000 -0.0000 -31.9801 -9.8624 -10.3616 5.5905 -0.0000 0.0000 -0.0000 0.0000 -0.0000 0.0000 2.1240 3.3350 -28.9529 5.5554 0.0000 0.0000 -3.5747 -5.2334 1.7598 1.8499 0.0000 0.0000 1.6827 -3.7531 22.8842 4.2904 0.0000 0.0000 -7.9119 18.9117 4.2633 11.4484 0.0000 0.0000
 11.1647 28.4239 38.1899 -0.4401 0.8268 -1.9798 1.3161 0.8566 0.2801 0.4947 -0.0491 0.0351 0.2600 -1.7187 0.3908 0.1227 -0.8129 1.0471 -1.0633 -1.0973 1.0679 0.5278 0.5262 2.8393 -1.2117 4.1769 -2.2702 -24.1445 -6.3293 -20.1033 0.0000 0.0000 28.8446 5.3880 12.3246 -2.2270 0.0000 -0.0000 0.0000 -0.0000 -0.0000 0.0000 -3.2878 -6.3277 1.0846 -21.6301 0.0240 26.1470 -0.0000 -0.0000 -31.9337 -9.7825 -10.4443 5.5370 -0.0000 0.0000 0.0000 0.0000 -0.0000 0.0000 2.1276 3.3294 -28.9550 5.5467 0.0000 0.0000 -3.5680 -5.2366 1.7730 1.8457 0.0000 0.0000 1.6802 -3.7574 22.8728 4.2961 0.0000 0.0000 -7.9258 18.8982 4.2858 11.4625 0.0000 0.0000
 11.1627 28.4255 38.1899 -0.4424 0.8302 -1.9876 1.3108 0.8555 0.2810 0.4872 -0.0538 0.0351 0.2684 -1.7115 0.3973 0.1293 -0.8138 1.0469 -0.9795 -1.1042 1.0600 0.5079 0.4978 2.8313 -1.2330 4.2095 -2.1939 -24.1100 -6.3251 -20.1623 0.0000 0.0000 28.7178 5.2463 12.4051 -1.9633 -0.0000 0.0000 0.0000 0.0000 -0.0000 0.0000 -3.3012 -6.3114 1.0846 -21.5638 0.0742 26.0873 -0.0000 -0.0000 -31.8817 -9.7040 -10.5207 5.4841 0.0000 0.0000 -0.0000 -0.0000 0.0000 0.0000 2.1310 3.3223 -28.9564 5.5374 0.0000 0.0000 -3.5599 -5.2397 1.7875 1.8428 0.0000 0.0000 1.6764 -3.7639 22.8591 4.3048 0.0000 0.0000 -7.9416 18.8840 4.3103 11.4749 0.0000 0.0000
 11.1607 28.4275 38.1900 -0.4446 0.8339 -1.9976 1.3062 0.8546 0.2822 0.4803 -0.0584 0.0351 0.2764 -1.7049 0.4040 0.1359 -0.8152 1.0472 -0.8926 -1.1082 1.0528 0.4852 0.4684 2.8211 -1.2541 4.2450 -2.1113 -24.0813 -6.3160 -20.2254 0.0000 0.0000 28.5909 5.0626 12.4697 -1.7184 -0.0000 -0.0000 -0.0000 0.0000 -0.0000 0.0000 -3.3155 -6.2936 1.0855 -21.4954 0.1210 26.0271 -0.0000 -0.0000 -31.8252 -9.6337 -10.5855 5.4331 -0.0000 0.0000 0.0000 0.0000 0.0000 0.0000 2.1332 3.3150 -28.9575 5.5289 0.0000 0.0000 -3.5512 -5.2427 1.8042 1.8411 0.0000 0.0000 1.6717 -3.7711 22.8424 4.3154 0.0000 0.0000 -7.9588 18.8685 4.3379 11.4858 0.0000 0.0000
 11.1584 28.4298 38.1901 -0.4464 0.8381 -2.0097 1.3024 0.8539 0.2834 0.4739 -0.0632 0.0352 0.2834 -1.6992 0.4108 0.1422 -0.8173 1.0480 -0.8054 -1.1088 1.0461 0.4605 0.4397 2.8088 -1.2743 4.2819 -2.0258 -24.0577 -6.3016 -20.2885 0.0000 0.0000 28.4662 4.8442 12.5165 -1.5026 -0.0000 0.0000 -0.0000 0.0000 -0.0000 -0.0000 -3.3294 -6.2752 1.0871 -21.4278 0.1629 25.9691 -0.0000 -0.0000 -31.7643 -9.5782 -10.6351 5.3838 -0.0000 -0.0000 -0.0000 -0.0000 0.0000 0.0000 2.1340 3.3072 -28.9583 5.5209 0.0000 0.0000 -3.5418 -5.2453 1.8230 1.8404 0.0000 0.0000 1.6656 -3.7795 22.8240 4.3279 0.0000 0.0000 -7.9771 18.8522 4.3675 11.4954 0.0000 0.0000
 11.1561 28.4324 38.1902 -0.4468 0.8432 -2.0238 1.2990 0.8536 0.2845 0.4679 -0.0685 0.0352 0.2894 -1.6943 0.4178 0.1482 -0.8199 1.0494 -0.7207 -1.1063 1.0405 0.4350 0.4138 2.7944 -1.2923 4.3195 -1.9406 -24.0405 -6.2822 -20.3476 0.0000 0.0000 28.3454 4.6024 12.5442 -1.3238 0.0000 -0.0000 -0.0000 0.0000 0.0000 0.0000 -3.3429 -6.2569 1.0895 -21.3625 0.1979 25.9155 -0.0000 -0.0000 -31.7000 -9.5417 -10.6659 5.3400 0.0000 -0.0000 0.0000 -0.0000 0.0000 0.0000 2.1324 3.2985 -28.9587 5.5131 0.0000 0.0000 -3.5317 -5.2472 1.8432 1.8410 0.0000 0.0000 1.6573 -3.7893 22.8053 4.3423 0.0000 0.0000 -7.9957 18.8352 4.3977 11.5040 0.0000 0.0000
